# xmcd CD database file
#
# Track frame offsets:
#	150
#	27952
#	65021
#	86613
#	103330
#	139000
#	158553
#	179817
#
# Disc length: 2984 seconds
#
# Revision: 0
# Processed by: cddbd v1.5.2PL0 Copyright (c) Steve Scherf et al.
# Submitted via: CDex 2.23
#
DISCID=6d0ba608
DTITLE=Various Artist - Explosion
DYEAR=2006
DGENRE=Jazz
TTITLE0=Art Blakey and the Jazz Messengers - A Little Busy
TTITLE1=Hank Mobley - Recado Bossa Nova
TTITLE2=Don Wilkerson - Senorita Eula
TTITLE3=Three Sounds - Yeah Yeah
TTITLE4=Andrew Hill - Hey Hey
TTITLE5=Freddie Roach - Brown Sugar
TTITLE6=Duke Pearson - After the Rain
TTITLE7=Donald Byrd - Slow Drag
EXTD=YEAR: 2006
EXTT0=
EXTT1=
EXTT2=
EXTT3=
EXTT4=
EXTT5=
EXTT6=
EXTT7=
PLAYORDER=
